
<svg xmlns="http://www.w3.org/2000/svg" version="1.1" xmlns:xlink="http://www.w3.org/1999/xlink" preserveAspectRatio="none" x="0px" y="0px" width="1920px" height="1080px" viewBox="0 0 1920 1080">
<defs>
<g id="Layer2_0_FILL">
<path fill="#D0CFCA" stroke="none" d="
M -232 -169.6
L -232 158.4 150.4 158.4 150.4 -169.6 -232 -169.6 Z"/>
</g>

<g id="Layer1_0_FILL">
<path fill="#D0CFCA" stroke="none" d="
M 416 493.4
Q 415.7919921875 488.7791015625 412.5 484.6 409.2091796875 480.4263671875 401.2 479.95 409.62421875 478.7091796875 410.95 476.95 413.5896484375 473.4994140625 414.25 468 414.9126953125 462.5462890625 412.15 459.45 409.4384765625 456.353515625 406.95 456.55 404.4568359375 456.8001953125 395.9 455.2 406.1400390625 452.8375 407.25 446.55 408.4046875 440.305859375 405 436.8 401.645703125 433.2962890625 396 433.4 390.3568359375 433.5046875 387.65 436.8 384.984375 440.0927734375 386.1 447.35 380.000390625 440.8 374.85 440.6 369.699609375 440.4 366.25 444.2 362.8 448.05 363 452.8 363.2 457.55 367.25 460.75 371.0640625 463.810546875 376.35 464 375.233984375 464.7884765625 372.35 467.3 369.525 469.8501953125 367.45 475.45 365.36875 481.10703125 370.1 485.65 374.8251953125 490.241796875 379.85 489.5 384.936328125 488.802734375 390.55 484.3 386.4 489.936328125 384.6 495.55 382.8 501.2115234375 386.9 505.8 391 510.376171875 399.4 510.2 407.798046875 510.030859375 412 504 416.20546875 498.019140625 416 493.4
M 1212 535.75
L 1211.55 533.5
Q 1199.902734375 514.4916015625 1175 534 1163.85703125 547.84609375 1160.25 560.75
L 1180.9 566.7 1203.25 571.5
Q 1210.39453125 556.68671875 1212 535.75
M 1209.7 516.7
Q 1213.7220703125 512.097265625 1213 508.85 1212.3359375 505.6525390625 1208.7 500.7 1205.109375 495.74765625 1200.9 497.85 1196.746875 499.95078125 1192.55 504.2 1188.3990234375 508.455859375 1188 511.75 1187.6509765625 515.0822265625 1191.55 519.2 1195.505078125 523.3296875 1200.6 522.3 1205.7349609375 521.3080078125 1209.7 516.7
M 1205.65 442.45
Q 1208.91484375 459.1703125 1212.25 463.7 1215.501171875 457.9470703125 1218.6 440.25 1211.945703125 434.94375 1205.65 442.45
M 1176.9 461.7
Q 1189.7498046875 475.746484375 1194.6 478.55 1195.8671875 473.7259765625 1190 459.1 1180.5244140625 457.10546875 1176.9 461.7
M 1250.55 454.2
Q 1234.1947265625 460.709375 1222.15 471.45 1240.4 472.277734375 1252.05 467.9 1256.3271484375 460.2865234375 1250.55 454.2
M 1108.9 165.6
Q 1078.47890625 146.11171875 1053.9 144.2 1107.684765625 174.110546875 1108.45 204.8 1079.684375 245.1697265625 1039.45 266.5
L 1025.05 207.3 967.2 212.4 968.2 272.15 915.25 283.3 918.7 293.45 888.35 316 872.8 312.15
Q 859.4505859375 279.593359375 844.1 248 808.25 239.8595703125 772.4 239.85 745.165234375 262.7193359375 719.9 290.55 694.206640625 265.7576171875 665.25 245.15 601.608984375 302.0669921875 542 361.35
L 539.15 360.3 501.5 356.4 450.45 308.75 444.1 314.85 498.75 371.9 540.45 371.15
Q 546.976953125 420.3431640625 566.15 500.6
L 571.15 501.4 513.15 563.45 585 592.8 607.7 508.4 677.4 523.85 622.6 586 704.05 606.25 710.7 531.15 732.65 535.9 812.85 461 838.95 575.25 872.1 563.4 893.05 554.95 915.75 544.4 867.9 464.8 918.85 474 980.95 583.85 1000.1 563.1 1011.6 549.9 1037.15 518.95 961.45 461.65 991.2 389.75 1088.2 377.7 1186.6 453.95 1257.7 350.5 1246.7 296.1 1228.55 309.15 1217.05 318.15 1225.05 350 1222.95 357.6 1210.4 377.8 1194.9 399.95 1184 416.9 1177.65 414.35 1155.35 399.85 1140.1 386.35 1077.2 321.85
Q 1136.8408203125 291.07421875 1204.3 238.45 1206.4833984375 208.224609375 1151.65 153.45 1193.8806640625 218.3525390625 1165.95 233.75 1108.904296875 281.6072265625 1057.45 303.95
L 1046.65 294.75
Q 1103.1251953125 260.1798828125 1130.8 226.45 1151.0212890625 198.2431640625 1108.9 165.6
M 1353.35 512.2
Q 1353.5220703125 508.3083984375 1349.85 506.4 1346.16328125 504.5337890625 1339.2 505.1 1332.2873046875 505.6732421875 1327.95 508.4 1323.6111328125 511.13359375 1323.95 513.55 1324.345703125 515.9552734375 1328.5 519.95 1332.7048828125 523.944140625 1339.35 523.9 1345.9951171875 523.9107421875 1349.6 520 1353.1927734375 516.1423828125 1353.35 512.2
M 1345.4 539.4
Q 1343.723828125 534.832421875 1340.35 530.45
L 1327.35 529.45
Q 1307.0103515625 538.512890625 1304.85 562.45
L 1341.85 565.95
Q 1349.94453125 551.9212890625 1345.4 539.4
M 1349.8 466.45
L 1349.05 484.1 1362.65 469.05
Q 1360.217578125 456.793359375 1349.8 466.45
M 1376.1 483.05
Q 1365.9009765625 487.1974609375 1360.6 494.1
L 1377 494.1
Q 1381.2693359375 488.2685546875 1376.1 483.05
M 1324.9 474.7
L 1333 493.3 1337 475.05
Q 1330.7236328125 467.951953125 1324.9 474.7
M 1456.35 477.95
Q 1449.5228515625 474.9326171875 1446.6 480.7 1450.7998046875 490.0501953125 1456.85 497.55 1458.5384765625 487.75 1456.35 477.95
M 1467.35 571.45
Q 1469.1123046875 554.158984375 1458.35 542.95 1452.1 538.9474609375 1445.85 542.45 1433.7935546875 554.3478515625 1432.85 569.95
L 1467.35 571.45
M 1468.35 525.3
Q 1470.36640625 519.20703125 1465.7 515.5 1461.0849609375 511.7953125 1454.6 510.25 1448.1111328125 508.7390625 1445.55 514.2 1443.0474609375 519.6685546875 1440.1 525.2 1437.2 530.733984375 1440.55 533 1443.9056640625 535.2537109375 1452.5 536.85 1461.1357421875 538.4994140625 1463.7 534.95 1466.3224609375 531.39609375 1468.35 525.3
M 1505.5 508.7
Q 1510.66875 507.1685546875 1514.85 500.7 1506.7072265625 496.5423828125 1495.85 500.7 1495.7294921875 505.698046875 1505.5 508.7
M 1488.85 485.95
Q 1487.89375 478.8015625 1479.1 481.45 1472.67421875 489.2 1474.65 496.95
L 1488.85 485.95 Z"/>
</g>

<path id="Layer0_0_1_STROKES" stroke="#000000" stroke-width="5" stroke-linejoin="round" stroke-linecap="round" fill="none" d="
M 1479.1 481.45
Q 1487.89375 478.8015625 1488.85 485.95
L 1474.65 496.95
Q 1472.67421875 489.2 1479.1 481.45 Z
M 1495.85 500.7
Q 1506.7072265625 496.5423828125 1514.85 500.7 1510.66875 507.1685546875 1505.5 508.7 1495.7294921875 505.698046875 1495.85 500.7 Z
M 1469.6 556
L 1497.55 539.75 1472.125 519.15 1483.2 507.2
M 1468.35 525.3
Q 1466.3224609375 531.39609375 1463.725 534.95 1461.1357421875 538.4994140625 1452.525 536.875 1443.9056640625 535.2537109375 1440.55 533 1437.2 530.733984375 1440.125 525.2 1443.0474609375 519.6685546875 1445.575 514.2 1448.1111328125 508.7390625 1454.6 510.275 1461.0849609375 511.7953125 1465.725 515.5 1470.36640625 519.20703125 1468.35 525.3 Z
M 1438.7 564.5
L 1438.7 557 1441.3 550.25 1442.8 564.15 1445.2 547.15 1449.2 565.5 1451.7 545.25 1455.3 564.15 1457.55 546.75 1458.45 564.9 1460.6 549.4 1462.45 562.65
M 1513.6 558.4
L 1515.2 562.4
M 1445.85 542.45
Q 1452.1 538.9474609375 1458.35 542.95 1469.1123046875 554.158984375 1467.35 571.45
L 1432.85 569.95
Q 1433.7935546875 554.3478515625 1445.85 542.45 Z
M 1548 571.2
L 1551.2 584.8
M 1446.6 480.7
Q 1449.5228515625 474.9326171875 1456.35 477.95 1458.5384765625 487.75 1456.85 497.55 1450.7998046875 490.0501953125 1446.6 480.7 Z
M 1324.9 474.7
Q 1330.7236328125 467.951953125 1337.025 475.05
L 1333 493.3 1324.9 474.7 Z
M 1349.8 466.45
Q 1360.217578125 456.793359375 1362.65 469.05
L 1349.05 484.1 1349.8 466.45 Z
M 1376.1 483.05
Q 1381.2693359375 488.2685546875 1377 494.125
L 1360.6 494.1
Q 1365.9009765625 487.1974609375 1376.1 483.05 Z
M 1353.35 512.225
Q 1353.1927734375 516.1423828125 1349.6 520.025 1345.9951171875 523.9107421875 1339.35 523.925 1332.7048828125 523.944140625 1328.525 519.95 1324.345703125 515.9552734375 1323.975 513.55 1323.6111328125 511.13359375 1327.95 508.4 1332.2873046875 505.6732421875 1339.225 505.1 1346.16328125 504.5337890625 1349.85 506.425 1353.5220703125 508.3083984375 1353.35 512.225 Z
M 1345.4 539.425
Q 1349.94453125 551.9212890625 1341.85 565.95
L 1304.85 562.45
Q 1307.0103515625 538.512890625 1327.35 529.45
L 1340.35 530.45
Q 1343.723828125 534.832421875 1345.4 539.425
L 1339.3 535.35 1342.45 549.4 1333.45 535.4 1338.8 557 1331.55 546.6 1331.05 560.65 1324.8 535.1 1325.05 559.9 1320.3 540 1319.95 552 1316.3 541.25 1317.7 560.9 1313.3 547.6 1309.3 558.15
M 1322.4 566.4
L 1298.975 590.475 1308 606.4
M 1432 504
L 1440.825 518.125 1401.45 544.925 1436 551.2
M 1386.5 514.475
L 1386.675 512.65 1384.875 513.8 1386.5 514.475 1400 520
M 1388 498.4
L 1386.675 512.65 1397.6 505.6
M 1385.6 571.2
L 1412.8 571.2
M 1390.4 580
L 1408.8 580
M 1456 572
L 1421.45 590.65 1428 603.2
M 1348 537.6
L 1384.875 513.8
M 1457.6 573.6
L 1473.35 605.1 1488.8 597.6
M 1490.4 619.2
L 1494.4 611.2
M 1330.4 565.6
L 1344.775 597.075 1368.8 579.2
M 1400 594.4
L 1411.2 589.6
M 434.8 307.25
L 444.125 314.875 450.475 308.775 501.525 356.425 539.15 360.325 542 361.35
Q 601.608984375 302.0669921875 665.25 245.175 694.206640625 265.7576171875 719.925 290.575 745.165234375 262.7193359375 772.4 239.85 808.25 239.8595703125 844.1 248.025 859.4505859375 279.593359375 872.825 312.15
L 888.375 316.025 918.7 293.475 915.275 283.325 968.2 272.175 967.2 212.4 1025.075 207.3 1039.45 266.525
Q 1079.684375 245.1697265625 1108.475 204.825 1107.684765625 174.110546875 1053.925 144.2 1078.47890625 146.11171875 1108.9 165.625 1151.0212890625 198.2431640625 1130.825 226.475 1103.1251953125 260.1798828125 1046.65 294.775
L 1057.45 303.975
Q 1108.904296875 281.6072265625 1165.975 233.75 1193.8806640625 218.3525390625 1151.675 153.475 1206.4833984375 208.224609375 1204.325 238.45 1136.8408203125 291.07421875 1077.2 321.875
L 1127.125 373.15 1140.125 386.35 1155.35 399.875 1177.675 414.35 1184 416.9 1194.925 399.975 1210.4 377.8 1222.975 357.625 1225.075 350.025 1217.075 318.175 1228.55 309.15 1238 302.375 1246.725 296.125 1257.725 350.525 1186.6 453.975 1088.2 377.725 991.225 389.75 961.45 461.65 1037.175 518.95 1011.625 549.9 1000.125 563.125 980.975 583.875 918.85 474.025 867.9 464.825 915.775 544.425 893.05 554.975 872.125 563.425 838.95 575.25 812.85 461 732.65 535.925 710.725 531.15 704.075 606.25 678.75 599.975 656.2 594.375 622.6 586.025 677.4 523.875 607.7 508.4 585 592.8 564.05 584.25 542.15 575.325 513.15 563.475 571.175 501.4 566.15 500.6
Q 544.786328125 411.1734375 539.15 360.325
M 1037.6 260.8
L 1039.45 266.525 1005.775 292.325
Q 1003.290625 305.49375 1015.725 311.05
L 1046.65 294.775
M 1012.8 226.4
L 1024 252.8
M 996.8 230.4
L 1004.8 262.4
M 984.8 230.4
L 990.4 258.4
M 1044.5 342.25
Q 1042.4685546875 342.2521484375 1038.5 337.7 1034.535546875 333.1529296875 1034.925 326.9 1035.3125 320.64921875 1038.6 319.025
L 1056.575 339.1
Q 1051.19140625 342.2369140625 1044.5 342.25
L 1049.6 334.4
M 995 379.5
L 991.225 389.75
M 1077.2 321.875
L 1057.45 303.975
M 1053.6 364
L 1071.4 354 1074.4 368
M 1117.6 384.8
L 1127.125 373.15
M 1234.4 327.2
L 1228.55 309.15
M 1240.8 316.8
L 1238 302.375
M 1235.2 362.4
L 1222.975 357.625
M 1224 382.4
L 1210.4 377.8
M 795.2 265.6
L 771.2 296.8
M 773.6 344.8
L 743.2 378.4
M 931.2 242.4
L 943.2 237.6
M 856.8 341.6
L 840 366.4
M 918.7 293.475
L 928.525 322.525 966.7 303.95
M 887.2 246.4
L 896.8 238.4
M 828 296.8
L 816 326.4
M 897.6 344.8
Q 884.9265625 363.9509765625 866.4 379.2
M 813.6 268
Q 789.281640625 304.881640625 755.2 332
M 918.85 474.025
L 953.35 481.175 961.45 461.65
M 812.85 461
L 819.45 454.85 867.9 464.825
M 877.6 588.8
L 876.8 581.6
M 863.2 539.2
L 872.125 563.425
M 920 506.4
L 928 527.2
M 909.6 509.6
L 918.4 534.4
M 877.6 526.4
L 893.05 554.975
M 717.6 416.8
L 676.8 462.4
M 696.8 406.4
L 652.8 458.4
M 677.4 523.875
L 710.725 531.15
M 687.2 542.4
L 684 560
M 678.4 539.2
L 672.8 561.6
M 700 481.6
L 681.6 506.4
M 714.4 491.2
L 696 511.2
M 661.6 576.8
L 656.2 594.375
M 687.2 570.4
L 678.75 599.975
M 853.6 604.8
L 860 583.2
M 831.2 602.4
L 836 593.6
M 809.6 491.2
L 817.6 541.6
M 822.8 414.3
L 794.4 444.8
M 1250.55 454.2
Q 1256.3271484375 460.2865234375 1252.05 467.925 1240.4 472.277734375 1222.15 471.45 1234.1947265625 460.709375 1250.55 454.2 Z
M 1207.2 404.8
L 1194.925 399.975
M 1148.8 413.6
L 1155.35 399.875
M 1151.425 490.5
L 1150.725 490.425 1151.2 491.225 1151.425 490.5 1156 475.2
M 1134.4 488.8
L 1150.725 490.425 1143.2 477.6
M 1176.9 461.7
Q 1180.5244140625 457.10546875 1190 459.1 1195.8671875 473.7259765625 1194.625 478.575 1189.7498046875 475.746484375 1176.9 461.7 Z
M 1172.8 430.4
L 1177.675 414.35
M 1205.65 442.45
Q 1211.945703125 434.94375 1218.625 440.275 1215.501171875 457.9470703125 1212.25 463.7 1208.91484375 459.1703125 1205.65 442.45 Z
M 1213.025 508.875
Q 1213.7220703125 512.097265625 1209.725 516.7 1205.7349609375 521.3080078125 1200.625 522.325 1195.505078125 523.3296875 1191.575 519.2 1187.6509765625 515.0822265625 1188.025 511.775 1188.3990234375 508.455859375 1192.575 504.2 1196.746875 499.95078125 1200.925 497.85 1205.109375 495.74765625 1208.725 500.7 1212.3359375 505.6525390625 1213.025 508.875 Z
M 1246.4 503.2
L 1245.75 503.725 1211.55 533.5 1212 535.75
Q 1210.39453125 556.68671875 1203.25 571.5
L 1180.925 566.725 1197.175 608.975 1227.9 598.05
M 1180.925 566.725
L 1160.25 560.75
Q 1163.85703125 547.84609375 1175 534 1199.902734375 514.4916015625 1211.55 533.5
M 1166 548.35
L 1171.75 559.6 1174.25 539.85 1181.25 557.1 1181.5 541.85 1187.75 559.35 1188 531.85 1197.5 561.85 1195.25 531.35 1202.25 552.6 1203.25 531.85 1210 546.85 1209.5 536.6
M 1153.6 613.6
L 1140.025 592 1176.7 566.2
M 1273.6 518.4
L 1289.3 525.125 1287.2 510.4
M 1245.75 503.725
L 1245.65 501.325 1240 508
M 1244.8 481.6
L 1245.625 500.95 1245.975 500.925 1257.6 487.2
M 1245.625 500.95
L 1245.65 501.325 1245.975 500.925 1266.4 500
M 1260.95 561.85
L 1289.35 563.4
M 1243.2 577.6
L 1290.8 578.55
M 1151.2 491.225
L 1175.3 532.25
M 1003.2 436
L 1012 428.8
M 988 502.4
L 995.2 498.4
M 996 528.8
L 1011.625 549.9
M 979.2 538.4
L 1000.125 563.125
M 1097.6 588.8
L 1120.8 585.6
M 1066.4 572
L 1124.8 571.2
M 1087.2 554.4
L 1123.2 552.8
M 1050.4 439.2
L 1053.6 429.6
M 1264.5 595.9
L 1283.9 595.4
M 1133.95 396.1
L 1140.125 386.35
M 795.2 363.2
L 752 417.6
M 919.2 375.2
L 889.6 430.4
M 940 389.6
L 916.8 436.8
M 977.6 344.8
L 939.2 435.2
M 808.1 388.8
L 729.1 476.3
M 972.8 324
Q 966.1890625 341.65859375 955.7 353.5
M 448.8 308
L 447.05 291.25 435.2 295.2
M 444.125 314.875
L 498.75 371.925 538.95 371.2
M 616 356.8
L 582.4 388
M 592 406.4
L 571.2 427.2
M 604 428
L 576.8 453.6
M 542.15 575.325
L 560 548.8
M 590.4 524
L 580.8 543.2
M 571.175 501.4
L 607.7 508.4
M 578.4 552.8
L 564.05 584.25
M 376.35 464
Q 371.0640625 463.810546875 367.25 460.75 363.2 457.55 363 452.8 362.8 448.05 366.25 444.225 369.699609375 440.4 374.85 440.6 380.000390625 440.8 386.1 447.35 384.984375 440.0927734375 387.675 436.8 390.3568359375 433.5046875 396 433.4 401.645703125 433.2962890625 405.025 436.8 408.4046875 440.305859375 407.275 446.575 406.1400390625 452.8375 395.9 455.2 404.4568359375 456.8001953125 406.95 456.575 409.4384765625 456.353515625 412.175 459.45 414.9126953125 462.5462890625 414.25 468.025 413.5896484375 473.4994140625 410.95 476.95 409.62421875 478.7091796875 401.2 479.975 409.2091796875 480.4263671875 412.5 484.6 415.7919921875 488.7791015625 416 493.4 416.20546875 498.019140625 412 504.025 407.798046875 510.030859375 399.4 510.2 391 510.376171875 386.9 505.8 382.8 501.2115234375 384.6 495.575 386.4 489.936328125 390.55 484.3 384.936328125 488.802734375 379.875 489.525 374.8251953125 490.241796875 370.1 485.675 365.36875 481.10703125 367.45 475.475 369.525 469.8501953125 372.375 467.325 375.233984375 464.7884765625 376.35 464 379.1009765625 462 382.6 462 383.6400390625 462 384.625 462.175 381.2703125 464 377 464 376.6677734375 464 376.35 464 Z
M 530.4 475.2
L 432 475.2
M 528.8 452.8
L 428 451.2
M 524.8 496
L 485.6 496
M 502.4 432
L 423.2 428.8
M 664.2 408.1
Q 646.9001953125 428.16328125 629.6 439.2
M 684.8 348.1
Q 656.2181640625 388.295703125 613.1 412.7
M 660 353.6
Q 647.5333984375 369.8111328125 623.2 388
M 688 285.6
L 644 329.2
M 1300 512
L 1290.275 525.55 1312.8 535.2"/>
</defs>

<g transform="matrix( 5.0209197998046875, 0, 0, 3.29266357421875, 1164.85,558.45) ">
<use xlink:href="#Layer2_0_FILL"/>
</g>

<g transform="matrix( 1, 0, 0, 1, 0,0) ">
<use xlink:href="#Layer1_0_FILL"/>
</g>

<g transform="matrix( 1, 0, 0, 1, 0,0) ">
<use xlink:href="#Layer0_0_1_STROKES"/>
</g>
</svg>
