<?xml version="1.0" standalone="no"?>
<!DOCTYPE svg PUBLIC "-//W3C//DTD SVG 20010904//EN"
 "http://www.w3.org/TR/2001/REC-SVG-20010904/DTD/svg10.dtd">
<svg version="1.0" xmlns="http://www.w3.org/2000/svg"
 width="700.000000pt" height="700.000000pt" viewBox="0 0 700.000000 700.000000"
 preserveAspectRatio="xMidYMid meet">
<metadata>
Created by potrace 1.14, written by Peter Selinger 2001-2017
</metadata>
<g transform="translate(0.000000,700.000000) scale(0.100000,-0.100000)"
fill="#000000" stroke="none">
<path d="M0 3500 l0 -3500 3500 0 3500 0 0 3500 0 3500 -3500 0 -3500 0 0
-3500z m3895 2465 c272 -50 619 -166 813 -272 26 -14 76 -41 112 -61 313 -170
646 -472 838 -760 250 -373 337 -593 371 -946 21 -213 8 -632 -25 -813 -40
-223 -153 -447 -328 -652 -159 -186 -393 -356 -594 -433 -82 -31 -94 -32 -217
-32 -112 1 -142 4 -219 28 -126 38 -213 77 -353 158 -182 104 -228 116 -328
79 -27 -10 -77 -28 -110 -40 -142 -52 -433 -91 -677 -91 -226 0 -400 36 -566
116 -165 80 -269 206 -345 419 -37 104 -51 208 -44 338 7 142 36 255 95 377
38 78 61 110 127 175 88 89 162 133 265 160 54 14 104 16 300 13 433 -6 566
-2 654 21 174 46 231 106 223 236 -12 211 -184 335 -518 374 -52 6 -196 15
-320 20 -246 9 -281 17 -321 72 -24 32 -26 95 -4 138 20 38 92 86 161 107 137
41 608 80 860 71 489 -17 766 -146 974 -453 113 -167 185 -400 211 -682 14
-139 8 -213 -41 -501 -66 -393 -56 -528 38 -568 74 -30 140 8 195 114 151 288
171 944 42 1352 -70 218 -263 505 -446 660 -239 204 -505 314 -878 363 -148
19 -512 16 -650 -5 -387 -61 -701 -197 -911 -395 -307 -289 -491 -839 -450
-1343 37 -453 207 -807 579 -1200 212 -225 521 -394 810 -443 289 -50 639 -73
846 -57 277 22 373 42 563 117 133 53 203 58 267 21 58 -33 78 -77 73 -159 -9
-145 -127 -261 -368 -363 -404 -170 -1243 -267 -1620 -186 -386 83 -785 263
-1071 483 -301 232 -615 674 -781 1098 -175 449 -212 912 -111 1395 88 414
307 820 621 1145 433 450 1005 737 1621 815 145 19 514 13 637 -10z"/>
<path d="M3364 3305 c-175 -38 -278 -143 -304 -310 -14 -91 -6 -155 31 -232
33 -70 77 -109 166 -151 55 -26 65 -27 198 -26 315 3 469 75 519 243 23 77 21
233 -3 286 -66 146 -371 241 -607 190z"/>
</g>
</svg>
