<svg  xmlns="http://www.w3.org/2000/svg" viewBox="0 0 88.96 88.96"><title>inline-icon-insta</title><path d="M44.48,23.16A21.32,21.32,0,1,0,65.8,44.48,21.31,21.31,0,0,0,44.48,23.16Zm0,35.16A13.84,13.84,0,1,1,58.32,44.48,13.84,13.84,0,0,1,44.48,58.32Z" fill="#4a4a4a"/><circle cx="66.64" cy="22.31" r="4.98" transform="translate(3.74 53.66) rotate(-45)" fill="#4a4a4a"/><path d="M83.82,17.28A21.26,21.26,0,0,0,71.68,5.14,30.34,30.34,0,0,0,61.6,3.21C57.17,3,55.76,3,44.48,3s-12.69,0-17.12.25A30.34,30.34,0,0,0,17.28,5.14,20.24,20.24,0,0,0,9.93,9.93a20.24,20.24,0,0,0-4.79,7.35A30.34,30.34,0,0,0,3.21,27.36C3,31.79,3,33.2,3,44.48s0,12.69.25,17.12A30.34,30.34,0,0,0,5.14,71.68,21.26,21.26,0,0,0,17.28,83.82a30.34,30.34,0,0,0,10.08,1.93c4.43.2,5.84.25,17.12.25s12.69,0,17.12-.25a30.34,30.34,0,0,0,10.08-1.93A21.26,21.26,0,0,0,83.82,71.68,30.34,30.34,0,0,0,85.75,61.6c.2-4.43.25-5.84.25-17.12s0-12.69-.25-17.12A30.34,30.34,0,0,0,83.82,17.28Zm-5.54,44A22.78,22.78,0,0,1,76.84,69,13.7,13.7,0,0,1,69,76.84a22.78,22.78,0,0,1-7.71,1.44c-4.38.2-5.69.24-16.78.24s-12.4,0-16.78-.24A22.72,22.72,0,0,1,20,76.84a12.79,12.79,0,0,1-4.77-3.1A12.77,12.77,0,0,1,12.11,69a23.11,23.11,0,0,1-1.43-7.71c-.2-4.38-.24-5.7-.24-16.78s0-12.4.24-16.78A23,23,0,0,1,12.11,20a12.69,12.69,0,0,1,3.11-4.77A12.69,12.69,0,0,1,20,12.11a23,23,0,0,1,7.71-1.43c4.38-.2,5.69-.24,16.78-.24s12.4,0,16.78.24A23.11,23.11,0,0,1,69,12.11a12.77,12.77,0,0,1,4.77,3.11A12.79,12.79,0,0,1,76.84,20a22.72,22.72,0,0,1,1.44,7.71c.2,4.38.24,5.69.24,16.78S78.48,56.88,78.28,61.26Z" fill="#4a4a4a"/></svg>