<?xml version="1.0" encoding="UTF-8"?><svg id="Layer_1" xmlns="http://www.w3.org/2000/svg" viewBox="0 0 870.02 185.74"><path d="M256.27,62.64C256.27,16.61,227.68,0,181.92,0H0V185.74H43.57V37.31H178.11c23.69,0,33.22,7.63,33.22,28.6s-9.53,28.05-33.22,28.05H86.01l112.25,91.78h55.29l-63.18-50.66-15.8-10.35,16.61-.27c42.21-2.45,65.09-21.79,65.09-61.82Z"/><polygon points="418 0 292.72 185.74 345.01 185.74 446.86 31.05 548.45 185.74 601.28 185.74 476 0 418 0"/><polygon points="816.09 0 700.9 114.82 700.9 185.74 754.01 185.74 754.01 114.66 870.02 0 816.09 0"/><polygon points="631.45 0 575.35 0 676.94 92.56 704.65 64.95 631.45 0"/></svg>