<svg class="logo" width="594.501394px" height="100px" viewBox="0 0 594.501394 100" version="1.1" xmlns="http://www.w3.org/2000/svg" xmlns:xlink="http://www.w3.org/1999/xlink">
    <title>logo</title>
    <defs>
        <polygon id="path-1" points="0 0 77.5937265 0 77.5937265 100 0 100"></polygon>
    </defs>
    <g id="Welcome" stroke="none" stroke-width="1" fill="none" fill-rule="evenodd">
        <g id="HOME-LOADING-PAGE" transform="translate(-367.749303, -394.000000)">
            <g id="logo" transform="translate(367.749303, 394.000000)">
                <path d="M381.924692,67.6157632 C393.221232,67.8463288 394.285441,64.3858837 394.005469,58.8276051 C393.725104,53.2693265 378.516007,50.860151 376.647171,58.853485 C375.183785,65.1014999 379.264169,67.0205274 381.924692,67.6157632 M380.281324,97.2552103 C372.438956,97.2552103 359.296323,92.3392216 351.939789,85.1477698 C341.756866,74.734281 335.411213,60.264327 337.218095,45.5975297 C339.565708,19.6071366 365.952925,0.547828644 391.28652,3.77182629 C406.163493,6.17629644 420.20643,14.6178218 427.609233,28.0372905 C433.058503,36.0894422 432.972629,45.287364 432.253876,55.2299186 C431.256719,69.0226841 417.140456,78.8256445 410.866561,78.8256445 C404.592666,78.8256445 398.921065,74.5950789 397.926653,74.1202235 C396.389157,73.3865699 395.208488,72.7313401 392.058209,74.2100186 C388.907929,75.6886972 380.548749,76.3098128 377.538848,76.1870797 C372.124869,75.9667091 365.971355,74.1347319 363.519438,70.2060974 C361.067522,66.2778551 360.61933,62.9068131 360.613448,60.8183904 C360.592666,53.5261641 364.587569,45.9249485 372.845583,45.9053426 C380.281324,45.8876973 386.947337,47.0640525 390.830094,44.4317616 C392.379354,43.3816685 392.372296,41.2203117 391.783726,39.4291148 C389.6706,34.0500343 381.955278,33.9653367 375.841759,33.7833938 C373.995666,33.7284972 369.786275,34.1241447 369.786275,31.1389472 C369.786275,29.0132732 372.055464,27.7867268 375.626486,27.3259876 C392.829114,25.105421 400.621291,27.1134595 405.564336,32.2960886 C410.073697,37.0242525 411.508459,43.5087148 411.819017,49.3830409 C412.143298,55.5236153 407.227702,68.1984511 412.576197,68.1984511 C417.924692,68.1984511 419.885285,46.6719341 414.724614,37.0579747 C407.929986,24.3984315 397.806665,20.7878051 384.594627,20.7921184 C382.787353,20.7925105 371.079873,21.0105284 362.93675,27.5675326 C354.793627,34.1241447 351.569629,47.9310264 353.958415,58.7762376 C355.499832,66.1131654 360.004096,72.4047054 365.249857,77.5869425 C370.870482,83.1389472 378.320732,84.7074208 378.320732,84.7074208 C378.320732,84.7074208 390.080756,86.8013332 397.092617,85.7763357 C400.038603,85.5669444 403.141828,85.0822861 406.12036,83.6557592 C410.474443,81.5704735 412.520124,83.9243604 412.472678,85.7516322 C412.90244,93.7688854 394.005469,97.2552103 380.281324,97.2552103" id="Fill-1" fill="#FFFFFF"></path>
                <g id="Group-5" transform="translate(516.907668, 0.000000)">
                    <mask id="mask-2" fill="white">
                        <use xlink:href="#path-1"></use>
                    </mask>
                    <g id="Clip-4"></g>
                    <path d="M52.2097707,28.7930203 C52.7461887,19.4613861 45.4069082,12.6722478 37.350051,12.7101243 C34.2664318,12.7247917 22.4628831,14.4712871 22.4628831,28.4150181 C22.4628831,42.3587491 30.2342781,45.2302323 37.3555407,45.8885992 C44.8061828,46.5771591 52.2423165,41.2533673 52.2097707,28.7930203 M10.0954681,94.0199588 C6.68403789,90.596765 10.6538448,85.3098324 15.0690982,85.8513479 C24.926171,87.060249 46.4926841,87.4523674 51.5533644,70.5277522 C52.7250143,66.6093128 53.2312391,59.944476 47.8423557,59.6225468 C40.671294,59.5060876 33.4947427,59.6637192 26.326818,59.4747182 C22.4087708,59.1253407 11.5941447,57.6513675 6.29348794,49.5576512 C-1.89982644,37.0459367 -3.1208832,20.2009215 8.83363107,9.92977159 C24.1250731,-4.09355945 53.3461298,-3.33990785 67.0036144,12.6765611 C70.6542369,16.3342417 77.5837536,25.8897755 77.5837536,44.8667386 C77.5837536,51.6158808 77.7394246,53.0047642 76.8206912,61.4059014 C76.2293766,66.8104696 74.2334938,77.0149593 65.5790482,85.9536908 C60.7810872,90.9092834 51.5902236,100.000157 33.1606578,100.000157 C20.6128684,100.000157 13.7025655,96.7228311 10.0954681,94.0199588" id="Fill-3" fill="#FFFFFF" mask="url(#mask-2)"></path>
                </g>
                <path d="M456.689363,98.6202921 C449.686128,97.2553279 449.627702,95.5754926 447.696127,94.0626997 C445.764943,92.5499069 445.913556,88.1056367 448.050994,86.6073522 C450.977766,84.4134497 454.844445,85.1984707 458.292735,85.1474953 C465.592411,85.3568866 473.095989,85.1306343 479.879246,82.354828 C488.58153,79.7633173 491.177746,68.0542692 489.841799,62.6567591 C488.505851,57.2592491 487.209508,53.3533575 477.724555,50.3434565 C466.155101,46.6720518 449.294009,49.8089991 446.329202,42.5810803 C445.208527,39.8487991 444.920712,37.4541319 444.89993,34.7747868 C444.839152,26.9571219 444.810527,19.1390648 444.698381,11.3221841 C444.665051,8.98986374 445.415174,7.07750221 446.760532,5.16984609 C449.294009,1.57843349 455.509086,1.72155671 460.047857,1.72155671 C464.586628,1.72155671 481.206175,1.9215371 486.669561,1.70312714 C494.982471,1.37061072 503.759258,1.05103421 505.648092,4.73969219 C511.175786,14.9147731 492.105498,11.3970787 487.044818,12.1809234 C480.639564,12.4777571 473.668482,12.9667288 469.561434,18.7328301 C466.246465,23.8864425 464.856013,31.6754828 471.884343,33.7144986 C478.702891,35.692736 480.126673,34.4810901 488.629761,36.6553867 C497.132456,38.8296834 501.756317,42.9728066 506.848367,48.364827 C511.080501,52.8471326 512.610547,59.6856779 513.093245,61.5411822 C514.835427,68.2342515 513.682991,76.1785707 510.120203,82.3403196 C505.982177,90.6653857 498.537809,94.5987256 489.855915,96.7071464 C479.174217,100.163278 463.692598,99.9852563 456.689363,98.6202921" id="Fill-6" fill="#FFFFFF"></path>
                <path d="M280.683089,98.4315263 C276.520752,97.8766788 271.685932,92.4003529 277.281069,90.0025488 C282.128829,88.5834722 287.196568,89.3586903 292.10589,88.281541 C294.537809,87.8553083 305.386549,85.0995 304.108635,79.5506323 C302.799744,73.8672679 296.519575,71.6647388 291.447916,70.2374277 C284.098048,67.7106166 274.09001,64.8901088 272.150592,56.2831095 C269.628094,44.4779924 275.081285,37.1406725 284.218036,33.7731595 C286.876207,32.7936477 293.230878,31.1385158 301.517909,31.1385158 C310.380177,31.2969317 322.119418,33.3175179 319.561238,39.019704 C318.14373,41.0881286 315.814154,40.3431036 313.149318,40.3431036 C310.484089,40.3431036 307.792588,40.4364278 301.884147,42.1817469 C295.975707,43.927066 290.887971,50.3668268 298.047269,54.3005588 C303.823173,56.6517008 316.365865,60.3960396 322.133927,66.2860504 C325.419095,69.9096167 327.525163,74.5377904 327.372629,79.5286737 C326.5084,94.8738359 313.122261,98.0978335 299.755729,98.6464072 C294.028055,98.8812861 286.564865,99.2157632 280.683089,98.4315263" id="Fill-8" fill="#FFFFFF"></path>
                <path d="M162.775786,77.648505 C162.775786,82.5746888 162.786373,87.5012646 162.770688,92.4274483 C162.764022,94.5405745 160.795195,96.4419567 158.745592,96.9697481 C152.570512,98.5597883 146.307988,97.5155769 140.093303,97.7786884 C138.042132,97.8657387 136.992039,95.9969023 137.814311,94.0433683 C140.625408,89.1685521 139.805488,77.0909127 139.762355,76.3317714 C139.130653,65.2030585 139.276913,54.1319871 139.306322,42.9930791 C139.832545,39.8898539 134.50444,36.7540829 139.020467,32.7987844 C141.088892,30.9871973 149.323379,30.5950789 154.708733,32.8399569 C158.793823,34.542535 160.09448,35.751044 164.574825,33.2383492 C177.473168,27.9749436 191.989784,30.0268993 204.140358,36.1419861 C206.918517,36.6564454 209.256719,35.3691207 211.622761,34.1664935 C214.148396,33.0520929 217.788823,30.5719439 229.041838,30.5719439 C240.294852,30.5719439 246.590313,33.9818057 250.333476,35.7820214 C258.899695,41.8194687 264.577962,51.9812175 264.648935,62.5111656 C265.809606,71.0413097 265.138299,79.625174 265.457091,88.1792373 C266.511498,95.1985492 260.266228,97.5763553 253.809606,97.5763553 C247.352984,97.5763553 242.692656,97.1356142 242.675011,91.3918635 C242.647563,82.3547103 241.863326,67.8463288 241.911164,61.8649544 C241.982138,52.9407313 236.47954,44.4262719 226.284069,45.4057837 C218.444053,45.4261739 215.826271,53.3983335 214.572668,59.7788844 C214.553062,70.082188 214.557376,80.3854916 214.550317,90.6891873 C214.548357,93.8261347 211.96861,96.4701892 208.945377,97.0140574 C204.678736,97.4932262 196.565414,98.3574552 191.562375,97.0528772 C187.358866,96.4709734 190.103695,93.3340261 190.446014,90.2413881 C192.115654,82.0096461 190.198195,60.280796 189.711576,58.0433683 C188.974393,53.0571905 186.436211,49.2258014 182.351513,46.3456916 C176.873619,44.121988 168.908125,45.2261935 166.151141,50.9966082 C161.714321,59.1522792 162.987529,68.6944809 162.842838,77.648505 C162.820487,77.648505 162.798136,77.648505 162.775786,77.648505" id="Fill-10" fill="#FFFFFF"></path>
                <path d="M11.9721388,56.0907362 C11.6145268,53.0231938 10.2366227,50.5442212 7.82234957,49.3212038 C7.08202999,49.0761298 2.39150945,46.4912852 1.37749122,44.7267523 C0.106243304,42.5144202 -0.776807377,41.5180473 1.00419449,39.2747378 C4.07330536,35.3025782 9.65550318,35.2351338 12.1893724,30.8116459 C12.9610615,23.9778061 13.0732073,16.1640623 18.2142719,10.9010489 C22.95616,5.90193118 27.9603753,3.22533085 34.4326819,2.36267033 C40.3144582,1.57843349 51.946259,4.41148907 42.4460139,11.2065092 C35.8125466,16.7271444 29.6147229,19.9911381 33.37357,29.8360553 C35.6090371,33.7321439 41.0222319,35.2398392 42.8248003,36.1554357 C46.2154483,37.8772277 48.9743935,40.3938437 45.7601988,43.9374179 C40.7712761,48.020547 31.750984,49.7321439 32.6606987,57.9960396 C32.6124682,66.9104598 33.0810497,75.8193903 33.2743641,84.7318498 C33.2743641,89.1737673 34.3711193,95.0182923 29.1379069,96.9930007 C23.6909899,98.5548084 17.8621496,97.3490442 12.2552483,97.705872 C10.1354561,97.7003823 9.27632467,96.1370062 10.3197518,94.2771885 C11.151435,92.9263406 11.7082431,91.1574944 12.0705605,89.2270954 C13.3178892,82.5850015 12.4740504,60.3961965 11.9721388,56.0907362" id="Fill-12" fill="#FFFFFF"></path>
                <path d="M121.094146,36.6746397 C120.551062,55.0030389 121.879952,73.2518381 121.839956,91.5406333 C121.541946,98.3117341 114.965728,98.0756789 109.371766,97.7968827 C100.700852,97.7968827 99.1959012,94.6371924 99.0606203,91.1708656 C98.3481412,72.943633 97.6976167,19.990001 97.7164384,16.423684 C97.7352601,12.857759 97.4588166,9.37182629 95.4695998,6.18586413 C94.6398773,4.66718949 95.4994008,2.85873934 97.2537386,2.78580531 C101.150612,2.74659347 111.701342,2.85638663 112.99847,3.06342515 C117.668992,3.80845015 121.360787,6.97951181 121.123947,12.5817077 C121.036897,20.6115087 121.094146,28.6432703 121.094146,36.6746397" id="Fill-14" fill="#FFFFFF"></path>
                <path d="M72.2494842,97.7083815 C68.4337798,97.7679835 62.57357,98.3604745 61.6654238,93.5185962 C61.5779814,81.0962847 60.3126152,48.6324086 59.9287313,41.9409078 C59.7632573,39.0557004 54.5731779,33.8075875 59.5879804,32.7684737 C65.0588166,32.7539653 70.5292607,32.7751397 75.9993126,32.7751397 C81.7897253,32.7751397 82.7072824,38.3173414 82.7915879,41.2158808 C82.8213889,42.2420547 82.7868825,74.8906186 84.0871471,90.7851387 C84.2141935,97.9354181 77.9324564,98.0099206 72.2494842,97.7083815" id="Fill-16" fill="#FFFFFF"></path>
            </g>
        </g>
    </g>
</svg>