<svg width="25.5488281px" height="25.6494141px" viewBox="0 0 25.5488281 25.6494141" version="1.1" xmlns="http://www.w3.org/2000/svg" xmlns:xlink="http://www.w3.org/1999/xlink">
    <title>“</title>
    <g id="Welcome" stroke="none" stroke-width="1" fill="none" fill-rule="evenodd">
        <g id="HIRE" transform="translate(-631.451172, -5489.743273)" fill="#FFFFFF" fill-rule="nonzero">
            <g id="“" transform="translate(631.451172, 5489.743273)">
                <path d="M15.2890625,25.6494141 L15.2890625,12.9755859 C15.2890625,9.52213542 16.2111003,6.68896484 18.0551758,4.47607422 C19.8992513,2.26318359 22.3971354,0.771158854 25.5488281,0 L25.5488281,5.58251953 C24.5764974,5.88427734 23.7885742,6.26147461 23.1850586,6.71411133 C22.581543,7.16674805 22.1121419,7.69482422 21.7768555,8.29833984 C21.441569,8.90185547 21.2236328,9.59757487 21.1230469,10.385498 C21.0224609,11.1734212 20.972168,12.0367839 20.972168,12.9755859 L20.972168,14.3837891 L25.5488281,14.3837891 L25.5488281,25.6494141 L15.2890625,25.6494141 Z M0,25.6494141 L0,12.9755859 C0,9.52213542 0.92203776,6.68896484 2.76611328,4.47607422 C4.6101888,2.26318359 7.10807292,0.771158854 10.2597656,0 L10.2597656,5.58251953 C9.2874349,5.88427734 8.49951172,6.26147461 7.89599609,6.71411133 C7.29248047,7.16674805 6.83146159,7.69482422 6.51293945,8.29833984 C6.19441732,8.90185547 5.97648112,9.59757487 5.85913086,10.385498 C5.7417806,11.1734212 5.68310547,12.0367839 5.68310547,12.9755859 L5.68310547,14.3837891 L10.2597656,14.3837891 L10.2597656,25.6494141 L0,25.6494141 Z" id="Shape"></path>
            </g>
        </g>
    </g>
</svg>