<svg id="Layer_1" data-name="Layer 1" xmlns="http://www.w3.org/2000/svg" xmlns:xlink="http://www.w3.org/1999/xlink" viewBox="0 0 16 16"><defs><clipPath id="clip-path"><polygon points="-132 132 -133.41 133.41 -127.83 139 -140 139 -140 141 -127.83 141 -133.41 146.59 -132 148 -124 140 -132 132" fill="none" clip-rule="evenodd"/></clipPath><clipPath id="clip-path-2"><polygon points="-202 132 -200.59 133.41 -206.17 139 -194 139 -194 141 -206.17 141 -200.59 146.59 -202 148 -210 140 -202 132" fill="none" clip-rule="evenodd"/></clipPath></defs><polygon points="16 8 14.59 6.59 9 12.17 9 0 7 0 7 12.17 1.41 6.59 0 8 8 16 16 8" fill="#000000" fill-rule="evenodd"/></svg>