<svg version="1.1" id="Layer_1" xmlns="http://www.w3.org/2000/svg" xmlns:xlink="http://www.w3.org/1999/xlink" x="0px" y="0px"
	 viewBox="0 0 24 24" style="enable-background:new 0 0 24 24;" xml:space="preserve">
<path d="M12,0.8c6.2,0,11.2,5,11.2,11.2s-5,11.2-11.2,11.2S0.8,18.2,0.8,12S5.8,0.8,12,0.8z M12,0C5.4,0,0,5.4,0,12s5.4,12,12,12
	s12-5.4,12-12S18.6,0,12,0z M18.4,12.6c0.2,0,0.2,0.3,0,0.4c0,0-5.8,0.8-6.3,0.8c-0.7,0-1.1-0.3-1.1-1c0-0.5,0.6-9.4,0.6-9.4
	c0-0.2,0.3-0.2,0.3,0l0.5,8.8L18.4,12.6z"/>
</svg>
