<svg id="Layer_1" data-name="Layer 1" xmlns="http://www.w3.org/2000/svg" xmlns:xlink="http://www.w3.org/1999/xlink" viewBox="0 0 16 16"><defs><clipPath id="clip-path"><polygon points="-201 132 -202.41 133.41 -196.83 139 -209 139 -209 141 -196.83 141 -202.41 146.59 -201 148 -193 140 -201 132" fill="none" clip-rule="evenodd"/></clipPath><clipPath id="clip-path-2"><polygon points="-271 132 -269.59 133.41 -275.17 139 -263 139 -263 141 -275.17 141 -269.59 146.59 -271 148 -279 140 -271 132" fill="none" clip-rule="evenodd"/></clipPath></defs><polygon points="8 16 9.41 14.59 3.83 9 16 9 16 7 3.83 7 9.41 1.41 8 0 0 8 8 16" fill="#000000" fill-rule="evenodd"/></svg>