<svg id="Layer_1" data-name="Layer 1" xmlns="http://www.w3.org/2000/svg" xmlns:xlink="http://www.w3.org/1999/xlink" viewBox="0 0 16 16"><defs><clipPath id="clip-path"><polygon points="-132 90 -133.41 91.41 -127.83 97 -140 97 -140 99 -127.83 99 -133.41 104.59 -132 106 -124 98 -132 90" fill="none" clip-rule="evenodd"/></clipPath><clipPath id="clip-path-2"><polygon points="-202 90 -200.59 91.41 -206.17 97 -194 97 -194 99 -206.17 99 -200.59 104.59 -202 106 -210 98 -202 90" fill="none" clip-rule="evenodd"/></clipPath></defs><polygon points="0 8 1.41 9.41 7 3.83 7 16 9 16 9 3.83 14.59 9.41 16 8 8 0 0 8" fill="#000000" fill-rule="evenodd"/></svg>