<svg id="Layer_1" data-name="Layer 1" xmlns="http://www.w3.org/2000/svg" xmlns:xlink="http://www.w3.org/1999/xlink" viewBox="0 0 16 16"><defs><clipPath id="clip-path"><polygon points="-201 90 -202.41 91.41 -196.83 97 -209 97 -209 99 -196.83 99 -202.41 104.59 -201 106 -193 98 -201 90" fill="none" clip-rule="evenodd"/></clipPath><clipPath id="clip-path-2"><polygon points="-271 90 -269.59 91.41 -275.17 97 -263 97 -263 99 -275.17 99 -269.59 104.59 -271 106 -279 98 -271 90" fill="none" clip-rule="evenodd"/></clipPath></defs><polygon points="8 0 6.59 1.41 12.17 7 0 7 0 9 12.17 9 6.59 14.59 8 16 16 8 8 0" fill="#000000" fill-rule="evenodd"/></svg>