<svg width="22px" height="24px" viewBox="0 0 22 24" version="1.1" xmlns="http://www.w3.org/2000/svg" xmlns:xlink="http://www.w3.org/1999/xlink">
    <title>Document</title>
    <g id="Welcome" stroke="none" stroke-width="1" fill="none" fill-rule="evenodd">
        <g id="HOW-WE-WORK" transform="translate(-674.000000, -1134.993061)" fill="#F7F7F7" fill-rule="nonzero">
            <g id="Group-3" transform="translate(192.750000, 1026.674265)">
                <g id="iconmonstr-note-38" transform="translate(481.250000, 108.318796)">
                    <path d="M6,22 L6,6 L20,6 L20,13.543 C20,17.65 14,16 14,16 C14,16 15.518,22 11.362,22 L6,22 Z M22,14.386 L22,4 L4,4 L4,24 L12.189,24 C15.352,24 22,16.777 22,14.386 Z M12,16 L8,16 L8,15 L12,15 L12,16 Z M18,12 L8,12 L8,13 L18,13 L18,12 Z M18,9 L8,9 L8,10 L18,10 L18,9 Z M19,2 L2,2 L2,21 L0,21 L0,0 L19,0 L19,2 Z" id="Shape"></path>
                </g>
            </g>
        </g>
    </g>
</svg>