<?xml version="1.0" encoding="UTF-8"?><svg id="Layer_1" xmlns="http://www.w3.org/2000/svg" viewBox="0 0 1516.13 255.02"><path d="m969.81,248.02c-20,0-53.52-12.54-72.28-30.88-25.97-26.56-42.15-63.46-37.54-100.86,5.99-66.28,73.28-114.89,137.89-106.67,37.94,6.13,73.75,27.66,92.63,61.88,13.9,20.53,13.68,43.99,11.84,69.35-2.54,35.17-38.54,60.17-54.54,60.17s-30.46-10.79-33-12c-3.92-1.87-6.93-3.54-14.97.23s-29.35,5.35-37.03,5.04c-13.81-.56-29.5-5.23-35.75-15.25s-7.4-18.62-7.41-23.94c-.05-18.6,10.13-37.98,31.19-38.03,18.96-.04,35.96,2.96,45.87-3.76,3.95-2.68,3.93-8.19,2.43-12.76-5.39-13.72-25.07-13.93-40.66-14.4-4.71-.14-15.44.87-15.44-6.74,0-5.42,5.79-8.55,14.89-9.72,43.87-5.66,63.74-.54,76.35,12.68,11.5,12.06,15.16,28.59,15.95,43.58.83,15.66-11.71,47.98,1.93,47.98s18.64-54.9,5.48-79.42c-17.33-32.28-43.14-41.49-76.84-41.48-4.61,0-34.47.56-55.23,17.28s-28.99,51.93-22.9,79.59c3.93,18.71,15.42,34.76,28.8,47.97,14.33,14.16,33.33,18.16,33.33,18.16,0,0,29.99,5.34,47.87,2.73,7.51-.53,15.43-1.77,23.02-5.41,11.1-5.32,16.32.69,16.2,5.35,1.1,20.45-47.1,29.34-82.1,29.34Zm4.19-75.59c28.81.59,31.52-8.24,30.81-22.41s-39.5-20.32-44.27.07c-3.73,15.93,6.67,20.83,13.46,22.35Z"/><path d="m1343.99,239.77c-8.7-8.73,1.42-22.21,12.68-20.83,25.14,3.08,80.14,4.08,93.04-39.08,2.99-9.99,4.28-26.99-9.46-27.81-18.29-.3-36.59.11-54.87-.38-9.99-.89-37.57-4.65-51.09-25.29-20.9-31.91-24.01-74.87,6.48-101.06,39-35.76,113.52-33.84,148.35,7,9.31,9.33,26.98,33.7,26.98,82.09,0,17.21.4,20.75-1.95,42.18-1.51,13.78-6.6,39.81-28.67,62.6-12.24,12.64-35.67,35.82-82.67,35.82-32,0-49.62-8.36-58.82-15.25Zm107.4-166.35c1.37-23.8-17.35-41.11-37.9-41.01-7.86.04-37.97,4.49-37.97,40.05s19.82,42.88,37.98,44.56c19,1.76,37.97-11.82,37.88-43.6Z"/><path d="m1164.67,251.51c-17.86-3.48-18.01-7.77-22.93-11.62-4.93-3.86-4.55-15.19.9-19.01,7.46-5.59,17.33-3.59,26.12-3.72,18.62.53,37.75-.04,55.05-7.12,22.19-6.61,28.81-36.47,25.41-50.23s-6.71-23.73-30.9-31.4c-29.5-9.36-72.5-1.36-80.07-19.8-2.86-6.97-3.59-13.08-3.65-19.91-.15-19.94-.23-39.88-.51-59.81-.09-5.95,1.83-10.83,5.26-15.69,6.46-9.16,22.31-8.79,33.89-8.79s53.96.51,67.89-.05c21.2-.85,43.58-1.66,48.4,7.74,14.1,25.95-34.54,16.98-47.44,18.98-16.34.76-34.11,2-44.59,16.71-8.45,13.14-12,33.01,5.92,38.21,17.39,5.04,21.02,1.96,42.71,7.5s33.48,16.11,46.46,29.86c10.79,11.43,14.7,28.87,15.93,33.6,4.44,17.07,1.5,37.33-7.58,53.04-10.55,21.23-29.54,31.26-51.68,36.64-27.24,8.81-66.72,8.36-84.58,4.88Z"/><path d="m715.81,251.02c-10.62-1.42-22.95-15.38-8.68-21.5,12.36-3.62,25.29-1.64,37.81-4.39,6.2-1.09,33.87-8.12,30.61-22.27s-19.35-20.11-32.29-23.75c-18.74-6.44-44.27-13.64-49.21-35.59-6.43-30.11,7.47-48.82,30.78-57.41,6.78-2.5,22.98-6.72,44.12-6.72,22.6.4,52.54,5.56,46.02,20.1-3.61,5.27-9.56,3.38-16.35,3.38s-13.66.24-28.73,4.69-28.04,20.87-9.78,30.91c14.73,6,46.72,15.54,61.43,30.57,8.38,9.24,13.75,21.04,13.36,33.77-2.2,39.13-36.34,47.36-70.43,48.75-14.61.6-33.64,1.45-48.64-.55Z"/><path d="m415.12,198.02c0,12.56.03,25.13-.01,37.69-.02,5.39-5.04,10.24-10.26,11.58-15.75,4.06-31.72,1.39-47.57,2.06-5.23.22-7.91-4.54-5.81-9.53,7.17-12.43,5.08-43.23,4.97-45.17-1.61-28.38-1.24-56.61-1.16-85.02,1.34-7.91-12.25-15.91-.73-26,5.27-4.62,26.27-5.62,40.01.1,10.42,4.34,13.73,7.42,25.16,1.02,32.89-13.42,69.91-8.19,100.9,7.4,7.08,1.31,13.05-1.97,19.08-5.04,6.44-2.84,15.73-9.17,44.42-9.17s44.75,8.7,54.3,13.29c21.85,15.4,36.33,41.31,36.51,68.17,2.96,21.75,1.25,43.65,2.06,65.46,2.69,17.9-13.24,23.97-29.7,23.97s-28.35-1.12-28.4-15.77c-.07-23.05-2.07-60.05-1.95-75.3.18-22.76-13.85-44.47-39.85-41.98-19.99.05-26.67,20.38-29.87,36.66-.05,26.28-.04,52.55-.06,78.83,0,8-6.58,14.74-14.29,16.13-10.88,1.22-31.57,3.43-44.33.1-10.72-1.48-3.72-9.48-2.85-17.37,4.26-20.99-.63-76.41-1.87-82.11-1.88-12.72-8.35-22.49-18.77-29.83-13.97-5.67-34.28-2.86-41.32,11.86-11.31,20.8-8.07,45.13-8.44,67.97-.06,0-.11,0-.17,0Z"/><path d="m30.53,143.05c-.91-7.82-4.43-14.15-10.58-17.26-1.89-.62-13.85-7.22-16.44-11.72-3.24-5.64-5.49-8.18-.95-13.9,7.83-10.13,22.06-10.3,28.52-21.58,1.97-17.43,2.25-37.36,15.36-50.78,12.09-12.75,24.86-19.57,41.36-21.78,15-2,44.66,5.23,20.44,22.55-16.92,14.08-32.72,22.4-23.14,47.51,5.7,9.94,19.51,13.78,24.1,16.12,8.65,4.39,15.68,10.81,7.49,19.85-12.72,10.41-35.73,14.78-33.41,35.85-.12,22.73,1.07,45.45,1.56,68.18,0,11.33,2.8,26.23-10.55,31.27-13.89,3.98-28.76.91-43.06,1.82-5.41-.01-7.6-4-4.94-8.74,2.12-3.45,3.54-7.96,4.47-12.88,3.18-16.94,1.03-73.53-.25-84.51Z"/><path d="m308.82,93.53c-1.39,46.74,2,93.28,1.9,139.92-.76,17.27-17.53,16.67-31.8,15.95-22.11,0-25.95-8.06-26.3-16.9-1.82-46.48-3.48-181.53-3.43-190.62s-.66-17.98-5.73-26.11c-2.12-3.87.08-8.49,4.55-8.67,9.94-.1,36.85.18,40.15.71,11.91,1.9,21.33,9.99,20.72,24.27-.22,20.48-.08,40.96-.08,61.44Z"/><path d="m184.25,249.18c-9.73.15-24.68,1.66-26.99-10.69-.22-31.68-3.45-114.47-4.43-131.54-.42-7.36-13.66-20.74-.87-23.39,13.95-.04,27.9.02,41.85.02,14.77,0,17.11,14.13,17.32,21.53.08,2.62-.01,85.88,3.3,126.41.32,18.23-15.7,18.42-30.19,17.66Z"/></svg>