<svg id="uuid-813bf527-9f85-477e-b3af-ef5fae76d375" xmlns="http://www.w3.org/2000/svg" viewBox="0 0 225.91 38"><path id="uuid-6c218089-2caf-4bc6-8f46-5093569f4ecb" d="m225.91,17.05c0-7.21-2.63-10.84-4.02-12.23-5.19-6.09-16.29-6.37-22.1-1.04-1.74,1.5-2.74,3.36-3.14,5.36v4.31c.34,1.88,1.1,3.73,2.18,5.39,2.01,3.08,6.12,3.64,7.61,3.77,2.72.07,5.45.01,8.18.06,2.05.12,1.86,2.65,1.41,4.14-1.92,6.43-10.12,6.28-13.86,5.82-1.68-.21-3.19,1.8-1.89,3.1,1.37,1.03,4,2.27,8.76,2.27h0c7,0,10.49-3.45,12.32-5.34,3.29-3.4,4.05-7.27,4.27-9.33.35-3.19.29-3.72.29-6.28Zm-9.64-6.11c.01,4.73-2.81,6.76-5.64,6.5-2.71-.25-5.66-1.34-5.66-6.64s4.49-5.96,5.66-5.97c3.06-.01,5.85,2.57,5.65,6.11Z" fill="#fff" stroke-width="0"/><path id="uuid-a89e96da-838b-42b7-b858-459f63b97310" d="m192.6,18.38c-1.93-2.05-3.69-3.62-6.92-4.45-3.23-.83-3.77-.37-6.36-1.12-2.67-.77-2.14-3.73-.88-5.69,1.56-2.19,4.21-2.38,6.64-2.49,1.92-.3,9.17,1.04,7.07-2.83-.72-1.4-4.05-1.28-7.21-1.15-2.08.08-8.39,0-10.12,0s-4.09-.05-5.05,1.31c-.51.72-.8,1.45-.78,2.34.04,2.97.05,5.94.08,8.91,0,1.02.12,1.93.54,2.97,1.13,2.75,7.53,1.55,11.93,2.95,3.6,1.14,4.1,2.63,4.6,4.68.51,2.05-.48,6.5-3.79,7.49-2.58,1.05-5.43,1.14-8.2,1.06-1.31.02-2.78-.28-3.89.55-.81.57-.87,2.26-.13,2.83.73.57.76,1.21,3.42,1.73,2.66.52,8.54.59,12.6-.73,3.3-.8,6.13-2.3,7.7-5.46,1.35-2.34,1.79-5.36,1.13-7.9-.18-.71-.76-3.3-2.37-5.01Z" fill="#fff" stroke-width="0"/><path id="uuid-c25bbb44-70f0-484a-abcf-9b95d83280e0" d="m162.49,10.65c-2.81-5.1-8.15-8.31-13.8-9.22-9.63-1.23-19.65,6.02-20.55,15.89-.69,5.57,1.72,11.07,5.59,15.03,2.8,2.73,7.79,4.6,10.77,4.6,5.22,0,12.4-1.32,12.23-4.37.02-.69-.76-1.59-2.41-.8-1.13.54-2.31.73-3.43.81-2.66.39-7.13-.41-7.13-.41,0,0-2.83-.6-4.97-2.71-1.99-1.97-3.71-4.36-4.29-7.15-.91-4.12.32-9.37,3.41-11.86,3.09-2.49,7.54-2.57,8.23-2.57,5.02,0,8.87,1.37,11.45,6.18,1.96,3.65,1.22,11.83-.82,11.83s-.16-4.82-.29-7.15c-.12-2.23-.66-4.7-2.38-6.49-1.88-1.97-4.84-2.73-11.38-1.89-1.36.18-2.22.64-2.22,1.45,0,1.13,1.6.98,2.3,1,2.32.07,5.25.1,6.06,2.15.22.68.23,1.5-.36,1.9-1.48,1-4.01.55-6.83.56-3.14,0-4.66,2.9-4.65,5.67,0,.79.17,2.07,1.1,3.57.93,1.49,3.27,2.19,5.33,2.27,1.14.05,4.32-.19,5.52-.75,1.2-.56,1.65-.31,2.23-.03.38.18,2.53,1.79,4.92,1.79s7.75-3.73,8.13-8.97c.27-3.78.31-7.27-1.76-10.33Zm-17.36,15.04c-1.01-.23-2.56-.96-2.01-3.33.71-3.04,6.49-2.12,6.6,0,.11,2.11-.3,3.43-4.59,3.34Z" fill="#fff" stroke-width="0"/><path id="uuid-9f4c4751-ff52-4753-b676-567c33d8c1bd" d="m103.42,21.39c.74,3.27,4.54,4.34,7.33,5.3,1.93.54,4.31,1.38,4.81,3.54.49,2.11-3.64,3.16-4.56,3.32-1.87.41-3.79.11-5.63.65-2.13.91-.29,2.99,1.29,3.2,2.23.3,5.07.17,7.25.08,5.08-.21,10.17-1.43,10.49-7.26.06-1.9-.74-3.66-1.99-5.03-2.19-2.24-6.96-3.66-9.15-4.55-2.72-1.49-.79-3.94,1.46-4.61,2.25-.66,3.27-.7,4.28-.7s1.9.28,2.44-.5c.97-2.17-3.49-2.93-6.86-2.99-3.15,0-5.56.63-6.57,1-3.47,1.28-5.54,4.07-4.59,8.55Z" fill="#fff" stroke-width="0"/><path id="uuid-ab0d0f31-81d5-4495-b616-de99af9e7223" d="m100.57,23.75c-.03-4-2.18-7.86-5.44-10.16-1.42-.68-3.81-1.98-8.09-1.98s-5.66.94-6.62,1.37c-.9.46-1.79.95-2.84.75-4.62-2.32-10.13-3.1-15.03-1.1-1.7.95-2.2.5-3.75-.15-2.05-.85-5.18-.7-5.96-.02-1.72,1.5.31,2.69.11,3.87-.01,4.23-.07,8.44.17,12.67.02.29.33,4.88-.74,6.73-.31.74.09,1.45.87,1.42,2.36-.1,4.74.3,7.09-.31.78-.2,1.53-.92,1.53-1.73,0-1.87,0-3.74,0-5.62h.03c.05-3.4-.43-7.03,1.26-10.13,1.05-2.19,4.07-2.61,6.16-1.77,1.55,1.09,2.52,2.55,2.8,4.45.18.85.91,9.11.28,12.24-.13,1.18-1.17,2.37.42,2.59,1.9.5,4.98.17,6.61-.01,1.15-.21,2.13-1.21,2.13-2.4,0-3.92,0-7.83,0-11.75.48-2.42,1.47-5.45,4.45-5.46,3.87-.37,5.97,2.86,5.94,6.25-.02,2.27.28,7.79.29,11.22,0,2.18,1.78,2.35,4.23,2.35s4.83-.9,4.43-3.57c-.12-3.25.13-6.51-.31-9.75Z" fill="#fff" stroke-width="0"/><path id="uuid-89167453-26c3-4fa4-8545-1cd95378005e" d="m37.13,6.24c0,1.36.24,21.48.51,28.4.05,1.32.62,2.52,3.92,2.52,2.13.11,4.62.2,4.74-2.38.02-6.95-.49-13.88-.28-20.85,0-3.05-.02-6.1.01-9.16.09-2.13-1.31-3.33-3.09-3.62-.49-.08-4.5-.12-5.98-.11-.67.03-.99.71-.68,1.29.76,1.21.86,2.54.85,3.89Z" fill="#fff" stroke-width="0"/><path id="uuid-21a5c7d3-7ced-44e8-bc7d-84395f57ed71" d="m22.77,15.94c.15,2.54.63,14.88.66,19.6.35,1.84,2.57,1.61,4.02,1.59,2.16.11,4.55.09,4.5-2.63-.49-6.04-.48-18.45-.49-18.84-.03-1.1-.38-3.21-2.58-3.21-2.08,0-4.16,0-6.24,0-1.91.39.07,2.39.13,3.49Z" fill="#fff" stroke-width="0"/><path id="uuid-e6e94cbb-e57d-4f02-b68c-b628d232d261" d="m16.27,13.74c-.68-.35-2.74-.92-3.59-2.4-1.43-3.74.93-4.98,3.45-7.08,3.61-2.58-.81-3.66-3.05-3.36-2.46.33-4.36,1.34-6.16,3.24-1.95,2-2,4.97-2.29,7.57-.96,1.68-3.08,1.71-4.25,3.22-.68.85-.34,1.23.14,2.07.39.67,2.17,1.65,2.45,1.75.92.46,1.44,1.41,1.58,2.57.19,1.64.51,10.07.04,12.59-.14.73-.35,1.41-.67,1.92-.4.71-.07,1.3.74,1.3,2.13-.14,4.35.32,6.42-.27,1.99-.75,1.57-2.97,1.57-4.66-.07-3.39-.25-6.77-.23-10.16-.35-3.14,3.08-3.79,4.98-5.34,1.22-1.35.17-2.3-1.12-2.96Z" fill="#fff" stroke-width="0"/></svg>