<?xml version="1.0" encoding="UTF-8"?><svg id="Layer_1" xmlns="http://www.w3.org/2000/svg" viewBox="0 0 366.93 104.58"><path d="m198.81,67.59c0,11.36-14.14,10.69-14.14,10.69h-14.14v-20.53h14.14c14.55-.1,14.14,9.84,14.14,9.84h0Zm-28.28-41.16h10.78c11.19.59,10.77,8.92,10.77,8.92,0,10.35-12.37,10.52-12.37,10.52h-9.17v-19.44h0Zm25.67,23.48s9.68-4.13,9.59-15.07c0,0,1.47-17.93-22.28-20.11h-26.36v75.16h30.21s25.25.07,25.25-21.21c0,0,.6-14.48-16.41-18.77h0ZM127.97,0h110.98v104.58h-110.98V0h0Zm-57.14,67.59c0,11.36-14.14,10.69-14.14,10.69h-14.14v-20.53h14.14c14.56-.1,14.14,9.84,14.14,9.84h0Zm-28.28-41.16h10.78c11.19.59,10.77,8.92,10.77,8.92,0,10.35-12.37,10.52-12.37,10.52h-9.17v-19.44h0Zm25.67,23.48s9.68-4.13,9.59-15.07c0,0,1.47-17.93-22.28-20.11h-26.36v75.16h30.22s25.25.07,25.25-21.21c0,0,.59-14.48-16.41-18.77h0ZM0,0h110.98v104.58H0V0h0Zm344.29,20.12v13.89s-13.56-8.33-28.53-8.5c0,0-27.95-.55-29.21,26.79,0,0-1.01,25.14,28.87,26.57,0,0,12.54,1.51,29.54-9.34v14.38s-22.81,13.55-49.24,3.11c0,0-22.22-8.11-23.06-34.73,0,0-.92-27.38,28.71-36.47,0,0,7.91-3.03,22.13-1.68,0,0,8.5.84,20.8,5.98h0Zm-88.34,84.46h110.98V0h-110.98v104.58h0Z" fill-rule="evenodd"/></svg>