<svg xmlns="http://www.w3.org/2000/svg" viewBox="0 0 1102.24 954.86">
  <g id="Layer_19" data-name="Layer 19">
    <g>
      <path d="M88.65,240.61c-9.15-32.44.22-38.72,6.81-45.08C109.52,182,416,128.36,427.34,141c13.3,7.32,30,49.29,12,68.85S234.16,405.69,220.19,416.67c0,0,771.66-244.64,787.62-250.61s19.63-5.15,25,8-5.46,21.16-5.46,21.16S88.5,565.31,57.58,569.31,8.69,529.4,1.71,509.45s8-40.9,34.92-61.85S324.8,229.19,324.8,229.19,130.05,279.33,115.44,277C115.44,277,97.79,273.06,88.65,240.61Z" fill="#eace29"/>
      <path d="M920.48,156.19c-12.21,6.24-11.49,13.38-13.06,24-3.79,25.64-22.82,423.53-23.15,451.14-.21,17.29,4.49,19.76,15,26,11.31,6.65,45.23,15.84,62.52,10.64,16.27-4.89,16.54-30,16.63-45.89.42-83.92-11.31-450.59-11.31-450.59S962,157.3,954.59,154.93,932.69,149.94,920.48,156.19Z" fill="#eace29"/>
      <path d="M705.19,238.41c-21.84-.56-31.82,7.5-34,36.39s20.89,615.66,26.28,646.06,18.29,35.69,38.74,33.59,56.2-18.79,68.64-41.69S731.21,430.09,745,274.28C747.64,244.6,732.6,239.1,705.19,238.41Z" fill="#eace29"/>
      <path d="M1011.17,164.85s68.69-24.91,79.66-12.28c21.29,24.49,10.45,146.73-13.3,172.14-29.24,31.29-115.8,97.49-137.07,104-19.5,5.94,4.75-96.51,9.71-97.65,26-6,56.71-31.84,67.27-42s25.21-44.94,22.18-74.67c-.7-6.9-5.39-20.46-22-15.29C996.41,205.65,1011.17,164.85,1011.17,164.85Z" fill="#eace29"/>
      <path d="M793.67,250.66S851,230.3,863,242c14.69,14.43,7.19,182.19-11.28,211.67-19.95,31.86-106.47,88.68-123.12,93.94-19.43,6.15-5.8-104.72-.84-105.86,26-6,49.9-16.46,66.86-40.32,8.51-12,9-74.6,6-104.34-.7-6.9-3.71-9.49-20.28-4.32C759,299.42,793.67,250.66,793.67,250.66Z" fill="#eace29"/>
      <path d="M521.16,47.24c4.53-8.35,11.92-21.11,28.34-24.85s37.86,27.2,33.87,37.8S442.87,532.9,437.21,555.82,416.1,590.69,406,585.64s-27.59-15-34.94-21-4.63-25.94,0-36.92S521.16,47.24,521.16,47.24Z" fill="#eace29"/>
      <path d="M569.23.72c12-.3,42.84-2.94,47.19,4.21s30.23,631.57,26,647.53-4.32,20.11-15.29,25-58.86-4.94-66.26-23-5.54-25.16-7.34-43.91,4.76-594.58,4.76-594.58S559.17,1,569.23.72Z" fill="#eace29"/>
    </g>
  </g>
</svg>
