<?xml version="1.0" encoding="UTF-8"?>
<svg xmlns="http://www.w3.org/2000/svg" xmlns:xlink="http://www.w3.org/1999/xlink" width="225.91053px" height="38px" viewBox="0 0 225.91053 38" version="1.1">
  <title>logo</title>
  <defs>
    <polygon id="path-1" points="0 0 29.4856161 0 29.4856161 38 0 38"></polygon>
  </defs>
  <g id="Welcome" stroke="none" stroke-width="1" fill="none" fill-rule="evenodd">
    <g id="HOME-LANDING-PAGE---HIRE" transform="translate(-192.000000, -23.702304)">
      <g id="logo" transform="translate(192.000000, 23.702304)">
        <path d="M145.131383,25.69399 C149.424068,25.7816049 149.828468,24.4666358 149.722078,22.35449 C149.61554,20.2423441 143.836083,19.3268574 143.125925,22.3643243 C142.569838,24.7385699 144.120384,25.4678004 145.131383,25.69399 M144.506903,36.9569799 C141.526803,36.9569799 136.532603,35.0889042 133.73712,32.3561525 C129.867609,28.3990268 127.456261,22.9004443 128.142876,17.3270613 C129.034969,7.45071189 139.062112,0.208174885 148.688878,1.43329399 C154.342127,2.34699265 159.678443,5.55477228 162.491509,10.6541704 C164.562231,13.713988 164.529599,17.2091983 164.256473,20.9873691 C163.877553,26.2286199 158.513373,29.9537449 156.129293,29.9537449 C153.745213,29.9537449 151.590005,28.34613 151.212128,28.1656849 C150.62788,27.8868966 150.179226,27.6379092 148.982119,28.1998071 C147.785013,28.7617049 144.608525,28.9977289 143.464762,28.9510903 C141.40745,28.8673495 139.069115,28.1711981 138.137386,26.678317 C137.205658,25.1855849 137.035345,23.904589 137.03311,23.1109883 C137.025213,20.3399424 138.543276,17.4514804 141.681321,17.4440302 C144.506903,17.437325 147.039988,17.88434 148.515436,16.8840694 C149.104154,16.485034 149.101472,15.6637185 148.877816,14.9830636 C148.074828,12.939013 145.143006,12.906828 142.819869,12.8376896 C142.118353,12.8168289 140.518784,12.967175 140.518784,11.8327999 C140.518784,11.0250438 141.381076,10.5589562 142.738065,10.3838753 C149.275063,9.54005999 152.236091,10.3031146 154.114448,12.2725137 C155.828005,14.069216 156.373214,16.5333116 156.491226,18.7655555 C156.614453,21.0989738 154.746527,25.9154114 156.778955,25.9154114 C158.811383,25.9154114 159.556408,17.735335 157.595353,14.0820304 C155.013395,9.27140398 151.166533,7.89936594 146.145958,7.901005 C145.459194,7.901154 141.010352,7.98400078 137.915965,10.4756624 C134.821578,12.967175 133.596459,18.21379 134.504198,22.3349703 C135.089936,25.1230028 136.801557,27.5137881 138.794946,29.4830381 C140.930783,31.5927999 143.761878,32.1888199 143.761878,32.1888199 C143.761878,32.1888199 148.230687,32.9845066 150.895195,32.5950075 C152.014669,32.5154389 153.193895,32.3312687 154.325737,31.7891885 C155.980288,30.9967799 156.757647,31.8912569 156.739618,32.5856202 C156.902927,35.6321765 149.722078,36.9569799 144.506903,36.9569799" id="Fill-1" fill="#FFFFFF"></path>
        <g id="Group-5" transform="translate(196.424914, 0.000000)">
          <mask id="mask-2" fill="white">
            <use xlink:href="#path-1"></use>
          </mask>
          <g id="Clip-4"></g>
          <path d="M19.8397129,10.9413477 C20.0435517,7.39532673 17.2546251,4.81545417 14.1930194,4.82984723 C13.0212441,4.83542084 8.53589558,5.49908911 8.53589558,10.7977069 C8.53589558,16.0963247 11.4890257,17.1874883 14.1951055,17.4376677 C17.0263495,17.6993205 19.8520803,15.6762796 19.8397129,10.9413477 M3.83627789,35.7275844 C2.5399344,34.4267707 4.04846101,32.4177363 5.72625731,32.6235122 C9.47194498,33.0828946 17.66722,33.2318996 19.5902785,26.8005458 C20.0355054,25.3115389 20.2278709,22.7789009 18.1800952,22.6565678 C15.4550917,22.6123133 12.7280022,22.6722133 10.0041908,22.6003929 C8.51533289,22.4676294 4.405775,21.9075197 2.39152542,18.8319075 C-0.721934047,14.0774559 -1.18593562,7.67635016 3.3567798,3.7733132 C9.16752777,-1.55555259 20.2715293,-1.26916498 25.4613735,4.81709323 C26.84861,6.20701186 29.4818264,9.83811469 29.4818264,17.0493607 C29.4818264,19.6140347 29.5409814,20.1418104 29.1918626,23.3342425 C28.9671631,25.3879784 28.2087277,29.2656845 24.9200383,32.6624025 C23.0968131,34.5455277 19.604285,38.0000596 12.60105,38.0000596 C7.83288999,38.0000596 5.20697488,36.7546758 3.83627789,35.7275844" id="Fill-3" fill="#FFFFFF" mask="url(#mask-2)"></path>
        </g>
        <path d="M173.541958,37.475711 C170.880728,36.9570246 170.858527,36.3186872 170.124528,35.7438259 C169.390679,35.1689646 169.447151,33.4801419 170.259378,32.9107938 C171.371551,32.0771109 172.840889,32.3754189 174.151239,32.3560482 C176.925116,32.4356169 179.776476,32.349641 182.354113,31.2948346 C185.660981,30.3100606 186.647544,25.8606223 186.139883,23.8095685 C185.632223,21.7585147 185.139613,20.2742759 181.535331,19.1305135 C177.138938,17.7353797 170.731723,18.9274197 169.605097,16.1808105 C169.17924,15.1425437 169.069871,14.2325701 169.061973,13.214419 C169.038878,10.2437063 169.028,7.27284462 168.985385,4.30242996 C168.972719,3.41614822 169.257766,2.68945084 169.769002,1.96454152 C170.731723,0.599804725 173.093453,0.65419155 174.818186,0.65419155 C176.542918,0.65419155 182.858346,0.7301841 184.934433,0.647188315 C188.093339,0.520832075 191.428518,0.399393001 192.146275,1.80108303 C194.246798,5.66761376 187.000089,4.33088991 185.077031,4.62875091 C182.643034,4.74154769 179.994023,4.92735693 178.433345,7.11847544 C177.173657,9.07684815 176.645285,12.0366835 179.316051,12.8115095 C181.907098,13.5632397 182.448136,13.1028142 185.679309,13.929047 C188.910333,14.7552797 190.6674,16.3296665 192.602379,18.3786343 C194.21059,20.0819104 194.792008,22.6805576 194.975433,23.3856493 C195.637462,25.9290156 195.199536,28.9478569 193.845677,31.2893214 C192.273227,34.4528466 189.444367,35.9475157 186.145248,36.7487156 C182.086202,38.0620457 176.203187,37.9943974 173.541958,37.475711" id="Fill-6" fill="#FFFFFF"></path>
        <path d="M106.659574,37.40398 C105.077886,37.1931379 103.240654,35.1121341 105.366806,34.2009685 C107.208955,33.6617194 109.134696,33.9563023 111.000238,33.5469856 C111.924367,33.3850172 116.046889,32.33781 115.561281,30.2292403 C115.063903,28.0695618 112.677439,27.2326007 110.750208,26.6902225 C107.957258,25.7300343 104.154204,24.6582413 103.417225,21.3875816 C102.458676,16.9016371 104.530888,14.1134555 108.002854,12.8338006 C109.012959,12.4615861 111.427734,11.832636 114.576805,11.832636 C117.944467,11.892834 122.405379,12.6606568 121.43327,14.8274875 C120.894617,15.6134889 120.009379,15.3303794 118.996741,15.3303794 C117.983954,15.3303794 116.961183,15.3658426 114.715976,16.0290638 C112.470769,16.6922851 110.537429,19.1393942 113.257962,20.6342123 C115.452806,21.5276463 120.219029,22.950495 122.410892,25.1886991 C123.659256,26.5656543 124.459562,28.3243604 124.401599,30.220896 C124.073192,36.0520576 118.986459,37.2771767 113.907177,37.4856347 C111.730661,37.5748887 108.894649,37.70199 106.659574,37.40398" id="Fill-8" fill="#FFFFFF"></path>
        <path d="M61.8547985,29.5064319 C61.8547985,31.3783817 61.8588216,33.2504805 61.8528614,35.1224303 C61.8503283,35.9254183 61.1021742,36.6479435 60.3233251,36.8485043 C57.9767944,37.4527195 55.5970355,37.0559192 53.2354553,37.1559016 C52.4560101,37.1889807 52.0569747,36.4788229 52.3694382,35.73648 C53.4376551,33.8840498 53.1260856,29.2945468 53.1096951,29.0060731 C52.869648,24.7771622 52.9252269,20.5701551 52.9364023,16.3373701 C53.136367,15.1581445 51.111687,13.9665515 52.8277776,12.4635381 C53.613779,11.775135 56.742884,11.62613 58.7893186,12.4791836 C60.3416527,13.1261633 60.8359023,13.5853967 62.5384334,12.6305727 C67.4398039,10.6304786 72.956118,11.4102217 77.5733359,13.7339547 C78.6290363,13.9294493 79.5175531,13.4402659 80.4166493,12.9832675 C81.3763905,12.5597953 82.7597529,11.6173387 87.0358984,11.6173387 C91.3120439,11.6173387 93.7043191,12.9130862 95.1267209,13.5971681 C98.3818841,15.8913981 100.539625,19.7528627 100.566595,23.7542429 C101.00765,26.9956977 100.752554,30.2575661 100.873695,33.5081102 C101.274369,36.1754487 98.9011665,37.079015 96.4476502,37.079015 C93.9941339,37.079015 92.2232094,36.9115334 92.2165042,34.7289081 C92.2060739,31.2947899 91.9080639,25.7816049 91.9262425,23.5086827 C91.9532124,20.1174779 89.8622252,16.8819833 85.9879462,17.2541978 C83.0087403,17.2619461 82.0139829,20.2913667 81.5376139,22.7159761 C81.5301637,26.6312314 81.5318027,30.5464868 81.5291206,34.4618912 C81.5283756,35.6539312 80.5480717,36.6586719 79.3992432,36.8653418 C77.7779198,37.0474259 74.6948573,37.375833 72.7937025,36.8800933 C71.1963689,36.6589699 72.2394039,35.4669299 72.3694853,34.2917275 C73.0039486,31.1636655 72.2753141,22.9067025 72.0903989,22.05648 C71.8102695,20.1617324 70.8457602,18.7058045 69.2935751,17.6113628 C67.2119752,16.7663555 64.1850877,17.1859535 63.1374335,19.3787111 C61.451442,22.4778661 61.9352612,26.1039028 61.8802783,29.5064319 C61.8717851,29.5064319 61.8632918,29.5064319 61.8547985,29.5064319" id="Fill-10" fill="#FFFFFF"></path>
        <path d="M4.54941275,21.3144798 C4.41352019,20.1488136 3.88991662,19.206804 2.97249284,18.7420574 C2.6911714,18.6489293 0.908773593,17.6666884 0.523446664,16.9961659 C0.0403724556,16.1554797 -0.295186803,15.776858 0.381593904,14.9244004 C1.54785604,13.4149797 3.66909121,13.3893508 4.63196152,11.7084254 C4.92520335,9.11156632 4.96781878,6.14234369 6.92142333,4.14239859 C8.72334079,2.24273385 10.6249426,1.22562572 13.0844191,0.897814724 C15.3194941,0.599804725 19.7395784,1.67636585 16.1294853,4.25847348 C13.6087677,6.35631487 11.2535947,7.59663249 12.6819566,11.337701 C13.5314341,12.8182147 15.5884481,13.3911389 16.2734241,13.7390656 C17.5618703,14.3933465 18.6102695,15.3496606 17.3888755,16.6962188 C15.4930849,18.2478079 12.0653739,18.8982147 12.4110655,22.038495 C12.3927379,25.4259747 12.5707989,28.8113683 12.6442583,32.1981029 C12.6442583,33.8860316 13.0610253,36.1069511 11.0724046,36.8573403 C9.00257616,37.4508272 6.78761684,36.9926368 4.65699436,37.1282313 C3.85147333,37.1261453 3.52500337,36.5320623 3.92150568,35.8253316 C4.23754528,35.3120094 4.44913238,34.6398479 4.586813,33.9062962 C5.0607979,31.3823006 4.74013915,22.9505547 4.54941275,21.3144798" id="Fill-12" fill="#FFFFFF"></path>
        <path d="M46.0157757,13.9363631 C45.8094037,20.9011548 46.3143817,27.8356985 46.2991832,34.7854406 C46.1859394,37.358459 43.6869765,37.268758 41.5612712,37.1628154 C38.2663236,37.1628154 37.6944424,35.9621331 37.6430357,34.6449289 C37.3722936,27.7185805 37.1250943,7.59620037 37.1322466,6.2409999 C37.1393988,4.88594844 37.0343503,3.56129399 36.2784479,2.35062837 C35.9631534,1.77353201 36.2897723,1.08632095 36.9564207,1.05860602 C38.4372324,1.04370552 42.4465099,1.08542692 42.9394184,1.16410156 C44.714217,1.44721106 46.1170991,2.65221449 46.0271,4.78104892 C45.9940209,7.8323733 46.0157757,10.8844427 46.0157757,13.9363631" id="Fill-14" fill="#FFFFFF"></path>
        <path d="M27.454804,37.129185 C26.0048363,37.1518337 23.7779566,37.3769803 23.432861,35.5370666 C23.3996329,30.8165882 22.9187938,18.4803153 22.7729179,15.9375449 C22.7100378,14.8411662 20.7378076,12.8468832 22.6434325,12.45202 C24.7223503,12.4465068 26.801119,12.4545531 28.8797388,12.4545531 C31.0800956,12.4545531 31.4287673,14.5605897 31.4608034,15.6620347 C31.4721278,16.0519808 31.4590153,28.4584351 31.9531159,34.4983527 C32.0013935,37.2154589 29.6143334,37.2437698 27.454804,37.129185" id="Fill-16" fill="#FFFFFF"></path>
      </g>
    </g>
  </g>
</svg>
